<?xml version="1.0" encoding="iso-8859-1"?>
<!-- Uploaded to: SVG Repo, www.svgrepo.com, Generator: SVG Repo Mixer Tools -->
<svg height="800px" width="800px" version="1.1" id="Layer_1" xmlns="http://www.w3.org/2000/svg" xmlns:xlink="http://www.w3.org/1999/xlink" 
	 viewBox="0 0 512.001 512.001" xml:space="preserve">
<g>
	<path style="fill:#58595B;" d="M256.001,0L256.001,0c-6.078,0-11.955,0.836-17.55,2.36c-0.143,0.033-0.294,0.054-0.433,0.093
		c-28.096,7.848-48.706,33.635-48.706,64.235v4.367h133.374v-4.369C322.687,29.857,292.83,0,256.001,0z"/>
	<path style="fill:#58595B;" d="M189.313,441.909v3.404c0,30.6,20.61,56.386,48.705,64.235c0.255,0.071,0.506,0.124,0.757,0.178
		c5.498,1.469,11.264,2.275,17.224,2.275l0,0c36.831,0,66.687-29.857,66.687-66.687v-3.404H189.313V441.909z"/>
</g>
<polygon style="fill:#E6E7E8;" points="322.687,401.997 189.313,401.997 189.313,374.786 191.601,370.562 191.698,344.629 
	189.313,340.587 189.313,315.393 191.601,309.561 191.993,285.788 189.313,281.196 189.313,256.001 192.288,251.309 
	192.485,225.376 189.313,221.803 189.313,196.608 192.485,192.175 191.895,167.273 189.313,162.411 189.313,137.215 
	192.043,133.162 189.313,110.102 322.687,110.102 322.687,112.021 320.185,116.831 319.89,142.567 322.687,146.229 322.687,171.414 
	319.792,176.359 319.596,202.39 322.687,205.621 322.687,230.805 319.498,237.655 319.399,261.034 322.687,265.015 322.687,290.197 
	320.087,295.612 320.087,319.58 322.687,324.407 322.687,349.519 320.087,354.059 319.596,379.796 322.687,383.728 "/>
<polygon style="fill:#D1D3D4;" points="289.831,401.997 322.687,401.997 322.687,383.728 319.596,379.796 320.087,354.059 
	322.687,349.519 322.687,324.407 320.087,319.58 320.087,295.612 322.687,290.197 322.687,265.015 319.399,261.034 319.498,237.655 
	322.687,230.805 322.687,205.621 319.596,202.39 319.792,176.359 322.687,171.414 322.687,146.229 319.89,142.567 320.185,116.831 
	322.687,112.021 322.687,110.102 289.831,110.102 "/>
<path style="fill:#414042;" d="M256.001,0L256.001,0c-6.231,0-12.256,0.873-17.976,2.472c28.095,7.849,48.711,33.616,48.711,64.216
	v4.369h35.953v-4.369C322.687,29.857,292.83,0,256.001,0z"/>
<polygon style="fill:#ED4850;" points="189.313,107.99 189.313,137.215 267.215,107.791 "/>
<path style="fill:#414042;" d="M286.735,441.909v3.404c0,30.599-20.617,56.367-48.711,64.216c5.722,1.598,11.745,2.472,17.976,2.472
	l0,0c36.831,0,66.687-29.857,66.687-66.687v-3.404h-35.953V441.909z"/>
<path style="fill:#D1D3D4;" d="M337.303,112.02H174.697c-3.123,0-5.653-2.531-5.653-5.653V74.064c0-3.123,2.531-5.653,5.653-5.653
	h162.607c3.123,0,5.653,2.531,5.653,5.653v32.303C342.958,109.489,340.426,112.02,337.303,112.02z"/>
<g>
	<polygon style="fill:#5A8EE8;" points="322.687,349.52 189.313,399.909 189.313,434.107 322.687,383.728 	"/>
	<polygon style="fill:#5A8EE8;" points="322.687,112.02 189.313,162.411 189.313,196.608 322.687,146.229 	"/>
</g>
<path style="fill:#D1D3D4;" d="M337.303,443.591H174.697c-3.123,0-5.653-2.531-5.653-5.653v-32.303c0-3.123,2.531-5.653,5.653-5.653
	h162.607c3.123,0,5.653,2.531,5.653,5.653v32.303C342.958,441.059,340.426,443.591,337.303,443.591z"/>
<g>
	<path style="fill:#BCBEC0;" d="M337.303,68.41h-36.698c3.123,0,5.653,2.531,5.653,5.653v32.303c0,3.123-2.531,5.653-5.653,5.653
		h36.698c3.123,0,5.653-2.531,5.653-5.653V74.064C342.958,70.941,340.426,68.41,337.303,68.41z"/>
	<path style="fill:#BCBEC0;" d="M337.303,399.98h-36.698c3.123,0,5.653,2.531,5.653,5.653v32.303c0,3.123-2.531,5.653-5.653,5.653
		h36.698c3.123,0,5.653-2.531,5.653-5.653v-32.303C342.958,402.511,340.426,399.98,337.303,399.98z"/>
</g>
<polygon style="fill:#5A8EE8;" points="322.687,230.805 189.313,281.195 189.313,315.392 322.687,265.015 "/>
<g>
	<polygon style="fill:#ED4850;" points="322.687,171.413 189.313,221.803 189.313,256.001 322.687,205.622 	"/>
	<polygon style="fill:#ED4850;" points="322.687,290.198 189.313,340.587 189.313,374.785 322.687,324.407 	"/>
</g>
</svg>